<svg width="24" height="25" viewBox="0 0 24 25" fill="none" xmlns="http://www.w3.org/2000/svg">
<path d="M16 21.0146V19.0146C16 17.9538 15.5786 16.9364 14.8284 16.1862C14.0783 15.4361 13.0609 15.0146 12 15.0146H5C3.93913 15.0146 2.92172 15.4361 2.17157 16.1862C1.42143 16.9364 1 17.9538 1 19.0146V21.0146" stroke="#7ED1E6" stroke-width="2" stroke-linecap="round" stroke-linejoin="round"/>
<path d="M8.5 11.0146C10.7091 11.0146 12.5 9.22379 12.5 7.01465C12.5 4.80551 10.7091 3.01465 8.5 3.01465C6.29086 3.01465 4.5 4.80551 4.5 7.01465C4.5 9.22379 6.29086 11.0146 8.5 11.0146Z" stroke="#7ED1E6" stroke-width="2" stroke-linecap="round" stroke-linejoin="round"/>
<path d="M17 11.0146L19 13.0146L23 9.01465" stroke="#7ED1E6" stroke-width="2" stroke-linecap="round" stroke-linejoin="round"/>
</svg>
