<svg width="24" height="25" viewBox="0 0 24 25" fill="none" xmlns="http://www.w3.org/2000/svg">
<path d="M12 14.4287C13.1046 14.4287 14 13.5333 14 12.4287C14 11.3241 13.1046 10.4287 12 10.4287C10.8954 10.4287 10 11.3241 10 12.4287C10 13.5333 10.8954 14.4287 12 14.4287Z" stroke="#7ED1E6" stroke-width="2" stroke-linecap="round" stroke-linejoin="round"/>
<path d="M16.2398 8.1884C16.7977 8.74564 17.2402 9.40737 17.5422 10.1358C17.8441 10.8641 17.9995 11.6449 17.9995 12.4334C17.9995 13.2219 17.8441 14.0027 17.5422 14.731C17.2402 15.4594 16.7977 16.1212 16.2398 16.6784M7.75982 16.6684C7.20196 16.1112 6.75941 15.4494 6.45746 14.721C6.15551 13.9927 6.0001 13.2119 6.0001 12.4234C6.0001 11.6349 6.15551 10.8541 6.45746 10.1258C6.75941 9.39737 7.20196 8.73564 7.75982 8.1784M19.0698 5.3584C20.9445 7.23368 21.9977 9.77676 21.9977 12.4284C21.9977 15.08 20.9445 17.6231 19.0698 19.4984M4.92982 19.4984C3.05511 17.6231 2.00195 15.08 2.00195 12.4284C2.00195 9.77676 3.05511 7.23368 4.92982 5.3584" stroke="#7ED1E6" stroke-width="2" stroke-linecap="round" stroke-linejoin="round"/>
</svg>
